<svg xmlns="http://www.w3.org/2000/svg" version="1.1" xmlns:xlink="http://www.w3.org/1999/xlink" xmlns:svgjs="http://svgjs.dev/svgjs" width="1500" height="939" viewBox="0 0 1500 939"><g transform="matrix(1,0,0,1,-0.9090909090909918,174.8814286412512)"><svg viewBox="0 0 396 248" data-background-color="#ffffff" preserveAspectRatio="xMidYMid meet" height="939" width="1500" xmlns="http://www.w3.org/2000/svg" xmlns:xlink="http://www.w3.org/1999/xlink"><g id="tight-bounds" transform="matrix(1,0,0,1,0.2400000000000091,0.4000000000000057)"><svg viewBox="0 0 395.52 247.2" height="247.2" width="395.52"><g><svg></svg></g><g><svg viewBox="0 0 395.52 247.2" height="247.2" width="395.52"><g transform="matrix(1,0,0,1,75.54432,64.4005792236679)"><svg viewBox="0 0 244.43135999999998 118.39884155266418" height="118.39884155266418" width="244.43135999999998"><g><svg viewBox="0 0 244.43135999999998 118.39884155266418" height="118.39884155266418" width="244.43135999999998"><g transform="matrix(1,0,0,1,0,73.17523400549436)"><svg viewBox="0 0 244.43135999999998 45.22360754716982" height="45.22360754716982" width="244.43135999999998"><g id="textblocktransform"><svg viewBox="0 0 244.43135999999998 45.22360754716982" height="45.22360754716982" width="244.43135999999998" id="textblock"><g><svg viewBox="0 0 244.43135999999998 45.22360754716982" height="45.22360754716982" width="244.43135999999998"><g transform="matrix(1,0,0,1,0,0)"><svg width="244.43135999999998" viewBox="2.6 -39.65 272.91999999999996 50.5" height="45.22360754716982" data-palette-color="#e51919"><path d="M8.45 0.75Q5.75 0.75 4.17-0.93 2.6-2.6 2.6-5.4L2.6-5.4 2.6-37.05 8.75-37.7 8.75-5.65Q8.75-5 9.05-4.6 9.35-4.2 9.95-4.2L9.95-4.2Q10.3-4.2 10.63-4.3 10.95-4.4 11.05-4.4L11.05-4.4 12.25-0.2Q10.55 0.75 8.45 0.75L8.45 0.75ZM24.7-27.15Q29.7-27.15 32.47-23.65 35.25-20.15 35.25-13.25L35.25-13.25Q35.25-6.65 32.45-2.95 29.65 0.75 24.7 0.75L24.7 0.75Q19.75 0.75 16.95-2.88 14.15-6.5 14.15-13.25L14.15-13.25Q14.15-19.95 16.95-23.55 19.75-27.15 24.7-27.15L24.7-27.15ZM24.7-22.5Q22.55-22.5 21.55-20.38 20.55-18.25 20.55-13.25L20.55-13.25Q20.55-8.2 21.55-6.08 22.55-3.95 24.7-3.95L24.7-3.95Q26.85-3.95 27.85-6.08 28.85-8.2 28.85-13.25L28.85-13.25Q28.85-18.3 27.85-20.4 26.85-22.5 24.7-22.5L24.7-22.5ZM52.2-26.45L58.25-26.45 51.35 0 44.1 0 37-26.45 43.35-26.45 47.7-4.95 52.2-26.45ZM61.14-26.45L67.29-26.45 67.29 0 61.14 0 61.14-26.45ZM64.19-39.65Q65.84-39.65 66.87-38.6 67.89-37.55 67.89-35.9L67.89-35.9Q67.89-34.3 66.87-33.25 65.84-32.2 64.19-32.2L64.19-32.2Q62.54-32.2 61.52-33.25 60.49-34.3 60.49-35.9L60.49-35.9Q60.49-37.55 61.52-38.6 62.54-39.65 64.19-39.65L64.19-39.65ZM85.34-27.15Q88.19-27.15 89.84-25.1 91.49-23.05 91.49-19.6L91.49-19.6 91.49 0 85.34 0 85.34-18.9Q85.34-20.8 84.82-21.63 84.29-22.45 83.29-22.45L83.29-22.45Q81.19-22.45 79.14-18.5L79.14-18.5 79.14 0 72.99 0 72.99-26.45 78.34-26.45 78.79-23Q80.14-25.1 81.67-26.13 83.19-27.15 85.34-27.15L85.34-27.15ZM114.99-29.85L116.54-25.1Q115.49-24.6 114.01-24.4 112.54-24.2 110.34-24.2L110.34-24.2Q112.44-23.2 113.46-21.53 114.49-19.85 114.49-17.4L114.49-17.4Q114.49-13.4 112.04-10.95 109.59-8.5 105.39-8.5L105.39-8.5Q104.14-8.5 102.84-8.9L102.84-8.9Q101.94-8.15 101.94-6.85L101.94-6.85Q101.94-5.85 102.49-5.35 103.04-4.85 104.54-4.85L104.54-4.85 107.34-4.85Q111.34-4.85 113.69-2.78 116.04-0.7 116.04 2.5L116.04 2.5Q116.04 6.3 113.11 8.58 110.19 10.85 104.79 10.85L104.79 10.85Q99.09 10.85 96.81 8.75 94.54 6.65 94.54 2.6L94.54 2.6 99.99 2.6Q99.99 4.75 100.99 5.65 101.99 6.55 104.84 6.55L104.84 6.55Q107.59 6.55 108.74 5.6 109.89 4.65 109.89 2.9L109.89 2.9Q109.89 1.2 108.94 0.4 107.99-0.4 105.99-0.4L105.99-0.4 104.09-0.4Q100.29-0.4 98.54-1.75 96.79-3.1 96.79-5.45L96.79-5.45Q96.79-6.8 97.51-8.03 98.24-9.25 99.49-10.2L99.49-10.2Q97.44-11.5 96.49-13.3 95.54-15.1 95.54-17.7L95.54-17.7Q95.54-22.05 98.14-24.58 100.74-27.1 105.14-27.1L105.14-27.1Q108.39-27.1 110.51-27.8 112.64-28.5 114.99-29.85L114.99-29.85ZM105.14-23Q103.39-23 102.49-21.75 101.59-20.5 101.59-17.8L101.59-17.8Q101.59-15.25 102.49-13.88 103.39-12.5 105.09-12.5L105.09-12.5Q106.84-12.5 107.69-13.73 108.54-14.95 108.54-17.85L108.54-17.85Q108.54-20.55 107.71-21.78 106.89-23 105.14-23L105.14-23ZM138.63-27.15Q140.78-27.15 142.53-26.43 144.28-25.7 145.88-24.15L145.88-24.15 143.23-20.65Q142.13-21.55 141.16-21.98 140.18-22.4 139.03-22.4L139.03-22.4Q136.78-22.4 135.63-20.28 134.48-18.15 134.48-13.1L134.48-13.1Q134.48-8.2 135.66-6.2 136.83-4.2 139.03-4.2L139.03-4.2Q140.13-4.2 141.03-4.6 141.93-5 143.13-5.85L143.13-5.85 145.88-2.3Q142.68 0.75 138.73 0.75L138.73 0.75Q133.63 0.75 130.81-2.73 127.98-6.2 127.98-13L127.98-13Q127.98-17.4 129.28-20.6 130.58-23.8 133.01-25.48 135.43-27.15 138.63-27.15L138.63-27.15ZM158.33-27.15Q163.33-27.15 166.11-23.65 168.88-20.15 168.88-13.25L168.88-13.25Q168.88-6.65 166.08-2.95 163.28 0.75 158.33 0.75L158.33 0.75Q153.38 0.75 150.58-2.88 147.78-6.5 147.78-13.25L147.78-13.25Q147.78-19.95 150.58-23.55 153.38-27.15 158.33-27.15L158.33-27.15ZM158.33-22.5Q156.18-22.5 155.18-20.38 154.18-18.25 154.18-13.25L154.18-13.25Q154.18-8.2 155.18-6.08 156.18-3.95 158.33-3.95L158.33-3.95Q160.48-3.95 161.48-6.08 162.48-8.2 162.48-13.25L162.48-13.25Q162.48-18.3 161.48-20.4 160.48-22.5 158.33-22.5L158.33-22.5ZM179.03 0.75Q176.33 0.75 174.75-0.93 173.18-2.6 173.18-5.4L173.18-5.4 173.18-37.05 179.33-37.7 179.33-5.65Q179.33-5 179.63-4.6 179.93-4.2 180.53-4.2L180.53-4.2Q180.88-4.2 181.2-4.3 181.53-4.4 181.63-4.4L181.63-4.4 182.83-0.2Q181.13 0.75 179.03 0.75L179.03 0.75ZM195.28-27.15Q200.28-27.15 203.05-23.65 205.83-20.15 205.83-13.25L205.83-13.25Q205.83-6.65 203.03-2.95 200.23 0.75 195.28 0.75L195.28 0.75Q190.33 0.75 187.53-2.88 184.73-6.5 184.73-13.25L184.73-13.25Q184.73-19.95 187.53-23.55 190.33-27.15 195.28-27.15L195.28-27.15ZM195.28-22.5Q193.13-22.5 192.13-20.38 191.13-18.25 191.13-13.25L191.13-13.25Q191.13-8.2 192.13-6.08 193.13-3.95 195.28-3.95L195.28-3.95Q197.43-3.95 198.43-6.08 199.43-8.2 199.43-13.25L199.43-13.25Q199.43-18.3 198.43-20.4 197.43-22.5 195.28-22.5L195.28-22.5ZM228.32-29.85L229.87-25.1Q228.82-24.6 227.35-24.4 225.87-24.2 223.67-24.2L223.67-24.2Q225.77-23.2 226.8-21.53 227.82-19.85 227.82-17.4L227.82-17.4Q227.82-13.4 225.37-10.95 222.92-8.5 218.72-8.5L218.72-8.5Q217.47-8.5 216.17-8.9L216.17-8.9Q215.27-8.15 215.27-6.85L215.27-6.85Q215.27-5.85 215.82-5.35 216.37-4.85 217.87-4.85L217.87-4.85 220.67-4.85Q224.67-4.85 227.02-2.78 229.37-0.7 229.37 2.5L229.37 2.5Q229.37 6.3 226.45 8.58 223.52 10.85 218.12 10.85L218.12 10.85Q212.42 10.85 210.15 8.75 207.87 6.65 207.87 2.6L207.87 2.6 213.32 2.6Q213.32 4.75 214.32 5.65 215.32 6.55 218.17 6.55L218.17 6.55Q220.92 6.55 222.07 5.6 223.22 4.65 223.22 2.9L223.22 2.9Q223.22 1.2 222.27 0.4 221.32-0.4 219.32-0.4L219.32-0.4 217.42-0.4Q213.62-0.4 211.87-1.75 210.12-3.1 210.12-5.45L210.12-5.45Q210.12-6.8 210.85-8.03 211.57-9.25 212.82-10.2L212.82-10.2Q210.77-11.5 209.82-13.3 208.87-15.1 208.87-17.7L208.87-17.7Q208.87-22.05 211.47-24.58 214.07-27.1 218.47-27.1L218.47-27.1Q221.72-27.1 223.85-27.8 225.97-28.5 228.32-29.85L228.32-29.85ZM218.47-23Q216.72-23 215.82-21.75 214.92-20.5 214.92-17.8L214.92-17.8Q214.92-15.25 215.82-13.88 216.72-12.5 218.42-12.5L218.42-12.5Q220.17-12.5 221.02-13.73 221.87-14.95 221.87-17.85L221.87-17.85Q221.87-20.55 221.05-21.78 220.22-23 218.47-23L218.47-23ZM244.97-27.15Q247.82-27.15 249.47-25.1 251.12-23.05 251.12-19.6L251.12-19.6 251.12 0 244.97 0 244.97-18.9Q244.97-20.8 244.45-21.63 243.92-22.45 242.92-22.45L242.92-22.45Q240.82-22.45 238.77-18.5L238.77-18.5 238.77 0 232.62 0 232.62-26.45 237.97-26.45 238.42-23Q239.77-25.1 241.3-26.13 242.82-27.15 244.97-27.15L244.97-27.15ZM275.52-13.85Q275.52-13.4 275.37-11.3L275.37-11.3 261.72-11.3Q261.92-7.2 263.14-5.58 264.37-3.95 266.62-3.95L266.62-3.95Q268.17-3.95 269.42-4.48 270.67-5 272.12-6.15L272.12-6.15 274.67-2.65Q271.17 0.75 266.27 0.75L266.27 0.75Q261.07 0.75 258.29-2.85 255.52-6.45 255.52-13L255.52-13Q255.52-19.55 258.17-23.35 260.82-27.15 265.67-27.15L265.67-27.15Q270.32-27.15 272.92-23.78 275.52-20.4 275.52-13.85L275.52-13.85ZM269.52-15.3L269.52-15.65Q269.52-19.4 268.62-21.13 267.72-22.85 265.72-22.85L265.72-22.85Q263.87-22.85 262.89-21.18 261.92-19.5 261.72-15.3L261.72-15.3 269.52-15.3Z" opacity="1" transform="matrix(1,0,0,1,0,0)" fill="#e51919" class="wordmark-text-0" data-fill-palette-color="primary" id="text-0"></path></svg></g></svg></g></svg></g></svg></g><g transform="matrix(1,0,0,1,78.96839709360933,0)"><svg viewBox="0 0 86.49456581278133 62.4990256301887" height="62.4990256301887" width="86.49456581278133"><g><svg xmlns="http://www.w3.org/2000/svg" xmlns:xlink="http://www.w3.org/1999/xlink" version="1.1" x="0" y="0" viewBox="5.119 17.57 89.762 64.86000000000001" enable-background="new 0 0 100 100" xml:space="preserve" height="62.4990256301887" width="86.49456581278133" class="icon-icon-0" data-fill-palette-color="accent" id="icon-0"><polygon points="5.119,38.147 24.297,29.01 26.756,24.226 47.921,21.521 56.812,17.57 72.945,18.392 88.132,26.381 94.818,38.477   94.881,50.484 92.288,59.138 85.25,69.096 75.496,75.972 65.002,79.881 54.835,80.46 56.872,78.873 70.705,72.858 73.439,74.528   71.873,72.102 77.922,65.97 81.713,67.984 78.787,64.817 82.287,52.613 90.348,51.042 82.41,50.413 77.656,40.915 84.756,33.229   75.929,38.97 69.207,34.146 70.681,26.006 66.853,33.542 60.307,34.74 55.328,37.653 61.506,51.935 71.585,64.859 63.926,64.339   66.896,65.97 58.868,66.835 52.476,68.927 47.856,72.729 43.312,78.975 43.023,75.602 39.814,82.43 33.311,53.006 44.135,48.848   45.973,45.229 43.883,48.238 32.859,51.481 21.005,50.907 20.676,56.259 18.125,58.767 14.214,60.457 15.572,54.815 13.021,51.319   11.21,48.107 5.777,44.158 " fill="#e51919" data-fill-palette-color="accent"></polygon></svg></g></svg></g><g></g></svg></g></svg></g><g><path d="M97.49 53.724A122.216 122.216 0 0 1 298.03 53.724L293.952 53.724A118.137 118.137 0 0 0 101.568 53.724L97.49 53.724M97.49 193.476A122.216 122.216 0 0 0 298.03 193.476L293.952 193.476A118.137 118.137 0 0 1 101.568 193.476L97.49 193.476" fill="#e51919" stroke="transparent" data-fill-palette-color="tertiary"></path></g></svg></g><defs></defs></svg><rect width="395.52" height="247.2" fill="none" stroke="none" visibility="hidden"></rect></g></svg></g></svg>